<svg width="20" height="20" viewBox="0 0 20 20" fill="none" xmlns="http://www.w3.org/2000/svg">
<g opacity="0.9" clip-path="url(#clip0_1_952)">
<path d="M10 18.7503C13.8 18.7503 16.9417 15.917 17.4333 12.2503C17.5083 11.717 17.0333 11.242 16.5 11.317C12.8333 11.8086 10 14.9503 10 18.7503ZM4.66667 8.95864C4.66667 10.1086 5.60001 11.042 6.75001 11.042C7.19167 11.042 7.59167 10.9086 7.93334 10.6753L7.91667 10.8336C7.91667 11.9836 8.85 12.917 10 12.917C11.15 12.917 12.0833 11.9836 12.0833 10.8336L12.0667 10.6753C12.4 10.9086 12.8083 11.042 13.25 11.042C14.4 11.042 15.3333 10.1086 15.3333 8.95864C15.3333 8.12531 14.8417 7.41697 14.1417 7.08364C14.8417 6.75031 15.3333 6.04197 15.3333 5.20864C15.3333 4.05864 14.4 3.12531 13.25 3.12531C12.8083 3.12531 12.4083 3.25864 12.0667 3.49197L12.0833 3.33364C12.0833 2.18364 11.15 1.25031 10 1.25031C8.85 1.25031 7.91667 2.18364 7.91667 3.33364L7.93334 3.49197C7.60001 3.25864 7.19167 3.12531 6.75001 3.12531C5.60001 3.12531 4.66667 4.05864 4.66667 5.20864C4.66667 6.04197 5.15834 6.75031 5.85834 7.08364C5.15834 7.41697 4.66667 8.12531 4.66667 8.95864ZM10 5.00031C11.15 5.00031 12.0833 5.93364 12.0833 7.08364C12.0833 8.23364 11.15 9.16697 10 9.16697C8.85 9.16697 7.91667 8.23364 7.91667 7.08364C7.91667 5.93364 8.85 5.00031 10 5.00031ZM2.56667 12.2503C3.05834 15.917 6.2 18.7503 10 18.7503C10 14.9503 7.16667 11.8086 3.5 11.317C2.96667 11.242 2.49167 11.717 2.56667 12.2503Z" fill="#111111"/>
</g>
<defs>
<clipPath id="clip0_1_952">
<rect width="20" height="20" fill="white"/>
</clipPath>
</defs>
</svg>
